<svg xmlns="http://www.w3.org/2000/svg" aria-labelledby="BeachBound Vacations Logo" data-name="Layer 1" viewBox="0 0 209.75 44.38"><path d="M149.14 34.95c.64 0 1.02.37 1.02.85 0 .58-1.22 2.03-1.63 2.92-.34.68-.61 1.42-.61 1.9 0 .34.14.71.44.71 1.12 0 3.02-2.03 4.24-3.49.41-.51.85-1.05 1.22-1.05.31 0 .54.17.54.51 0 .37-.17.61-.58 1.12-1.63 1.93-4.24 4.47-5.97 4.47-1.12 0-1.66-.78-1.66-1.73 0-.37.03-.71.07-1.19-.98.98-3.29 3.29-4.81 3.29-.44 0-1.15-.61-1.15-1.49 0-3.49 3.93-6.88 6.51-6.88.54 0 1.05.34 1.39.75.1 0 .47-.68.98-.68Zm-7.05 6.21c0 .17.14.27.31.27.51 0 4.68-3.63 4.68-4.27 0-.37-.31-.68-.75-.68-1.36 0-4.24 3.12-4.24 4.68Z" style="fill:#f0614c"/><path d="M161.01 36.78c.31 0 .54.17.54.51 0 .37-.17.61-.58 1.12-1.59 1.97-4.88 4.78-7.76 4.78-.75 0-2.07-.58-2.07-2.2 0-2.2 3.19-6.1 5.87-6.1.81 0 1.66.71 1.66 1.49 0 1.05-1.08 2-1.8 2-.31 0-.61-.2-.61-.68 0-.3.2-.54.41-.68.17-.1.34-.24.34-.41 0-.03-.07-.1-.17-.1-1.19 0-3.87 2.54-3.87 4.37 0 .44.27.85.68.85 2.2 0 4.95-2.34 6.14-3.9.41-.51.85-1.05 1.22-1.05Z" style="fill:#f0614c"/><path d="M167.08 34.95c.64 0 1.02.37 1.02.85 0 .58-1.22 2.03-1.63 2.92-.34.68-.61 1.42-.61 1.9 0 .34.14.71.44.71 1.12 0 3.02-2.03 4.24-3.49.41-.51.85-1.05 1.22-1.05.31 0 .54.17.54.51 0 .37-.17.61-.58 1.12-1.63 1.93-4.24 4.47-5.97 4.47-1.12 0-1.66-.78-1.66-1.73 0-.37.03-.71.07-1.19-.98.98-3.29 3.29-4.81 3.29-.44 0-1.15-.61-1.15-1.49 0-3.49 3.93-6.88 6.51-6.88.54 0 1.05.34 1.39.75.1 0 .47-.68.98-.68Zm-7.05 6.21c0 .17.14.27.31.27.51 0 4.68-3.63 4.68-4.27 0-.37-.3-.68-.75-.68-1.36 0-4.24 3.12-4.24 4.68Z" style="fill:#f0614c"/><path d="M172.4 32.78c.27 0 .61-.03.92-.14 1.19-2.07 1.73-3.19 2.34-4 .58-.81.98-1.22 1.49-1.22.61 0 .85.27.85.78 0 .44-.14.71-.81 1.25-.47.34-.68.85-1.63 2.54.58-.17 1.25-.31 1.93-.31 1.25 0 1.87.34 1.87 1.12 0 .68-.54 1.46-1.05 1.46-.41 0-.51-.2-.51-.41 0-.17.07-.3.07-.47 0-.14-.3-.27-.71-.27-.68 0-1.76.27-2.68.58-1.9 3.36-3.7 7.32-3.7 9.05 0 .3.24.64.24.85 0 .3-.3.78-.81.78-.61 0-.95-.47-.95-1.42 0-1.8 1.66-5.66 3.19-8.68-1.63 0-2-.24-2-.78s.34-.98.95-.98c.34 0 .61.27 1.02.27Z" style="fill:#f0614c"/><path d="M181.42 36.78c.31 0 .54.17.54.51 0 .37-.17.61-.58 1.12-1.59 1.93-4.65 4.75-6.38 4.75-.71 0-1.49-.61-1.49-1.8 0-1.49 1.73-4.81 2-5.32.41-.68.75-1.22 1.22-1.22s.85.27.85.71c0 .47-.24.71-.44 1.02-.98 1.59-1.93 3.93-1.93 4.61 0 .24.17.54.47.54.92 0 3.36-2.31 4.51-3.87.41-.51.85-1.05 1.22-1.05Zm-.37-7.02c0 .88-.92 1.42-1.36 1.42-.54 0-.75-.71-.75-1.22 0-.54.54-1.22 1.29-1.22.41 0 .81.2.81 1.02Z" style="fill:#f0614c"/><path d="M186.23 36.04c0 .24.1 1.02.44 1.02.85 0 1.42-.24 2.03-.51.3-.14.78-.44.98-.44.41 0 .64.17.64.61 0 .41-.51.85-1.63 1.39-1.08.51-2.48.58-2.81.58-.78 2-2.31 4.61-4.71 4.61-1.02 0-2-.78-2-2.31 0-3.19 2.85-6.17 5.12-6.17 1.32 0 1.93.64 1.93 1.22Zm-2.31 1.22c0-.2.07-.47.14-.68-1.36.07-3.22 2.41-3.22 4.48 0 .51.37.88.71.88 1.25 0 2.92-3.02 2.92-3.87-.2-.03-.54-.44-.54-.81Z" style="fill:#f0614c"/><path d="M202.51 36.78c.3 0 .54.17.54.51 0 .37-.17.61-.58 1.12-1.56 1.93-3.8 4.47-5.49 4.47s-2-1.56-2-3.05c0-.75.2-1.76.2-2.58 0-.17-.1-.37-.3-.37-.95 0-4.17 3.59-4.95 4.65-.34.44-.64 1.93-1.22 1.93-.61 0-1.15-.24-1.15-.92 0-.85 1.32-4.34 1.97-6.34.48-1.53.71-2.03 1.59-2.03.24 0 .71.24.71.71s-.14.78-.47 1.73c-.2.54-.64 2.04-.71 2.24 1.08-1.22 3.53-3.87 5.02-3.87.75 0 1.32.47 1.32 1.29 0 1.02-.2 2-.2 3.19 0 1.05.07 1.97.71 1.97.78 0 2.64-2.04 3.8-3.59.41-.51.85-1.05 1.22-1.05Z" style="fill:#f0614c"/><path d="M202.85 39.77c-.64-.34-1.29-.81-1.29-1.63 0-1.83 2.68-3.42 4.2-3.42.64 0 1.39.54 1.39 1.25 0 .78-.47 2-1.22 2-.47 0-.75-.24-.75-.71 0-.34.37-.61.37-.88 0-.13-.1-.24-.31-.24-.44 0-1.97.95-1.97 1.8 0 .27.34.54.75.75.71.37 1.7.85 1.7 2.14 0 1.19-1.05 2.47-3.05 2.47-1.29 0-2.17-.85-2.17-1.7 0-.51.34-.88.81-.88.37 0 .71.17.71.64s.3.75.85.75c.64 0 1.08-.54 1.08-1.12 0-.61-.61-.95-1.12-1.22ZM131.02 32.95c1.19-2.27 2.27-4.47 2.27-6.07 0-.85-.58-1.25-1.12-1.25-3.22 0-10.14 4.75-10.14 7.9 0 .85-.31 1.42-.92 1.42-.47 0-.98-.31-.98-1.22 0-4.31 8.2-9.76 12.51-9.76 1.53 0 2.58 1.42 2.58 2.58 0 2.07-1.32 4.75-2.64 7.32-1.32 2.58-2.71 5.32-2.71 7.56 0 .68.37.98.92.98 2.48 0 11.49-9.09 11.49-15.66 0-1.25-.41-1.7-.78-2.03-.27-.24-.44-.44-.44-.88 0-.75.47-1.15 1.12-1.15.85 0 1.83 1.39 1.83 3.49 0 8.04-9.87 18.07-13.73 18.07-1.22 0-2.34-1.05-2.34-2.61 0-2.71 1.66-5.93 3.08-8.68Z" style="fill:#f0614c"/><path d="M42.95 14.51h8.9v-2.68h-8.9V7.72h7.48V5.06H40.24v16.29h13.5V18.7H42.95v-4.19zM208.33 40.35c-.77 0-1.4.63-1.4 1.4s.63 1.4 1.4 1.4 1.4-.63 1.4-1.4-.63-1.4-1.4-1.4Zm0 2.51c-.62 0-1.12-.5-1.12-1.12s.5-1.12 1.12-1.12 1.12.5 1.12 1.12-.5 1.12-1.12 1.12ZM65.78 5.06c-1.98 0-3.7.7-5.1 2.07s-2.11 3.06-2.11 5.01v9.21h2.71v-5.22h9.01v5.22H73v-9.21c0-1.95-.71-3.64-2.11-5.01-1.4-1.37-3.12-2.07-5.1-2.07Zm4.42 8.38h-8.84v-1.28c0-1.21.43-2.2 1.3-3.05.88-.84 1.9-1.26 3.13-1.26s2.25.41 3.12 1.25c.87.84 1.29 1.84 1.29 3.05v1.28ZM33.05 12.4c.53-.77.8-1.63.8-2.58 0-1.31-.48-2.44-1.43-3.36-.95-.92-2.1-1.39-3.42-1.39h-7.29v16.29h9.24c1.3-.04 2.43-.52 3.34-1.43.92-.92 1.39-2.03 1.39-3.32 0-.99-.3-1.91-.9-2.72a4.823 4.823 0 0 0-1.73-1.48ZM24.5 7.85h4.46c.57 0 1.05.2 1.46.61.41.41.6.9.6 1.48s-.2 1.07-.6 1.48-.88.61-1.46.61H24.5V7.84Zm7.77 10.1c-.41.41-.9.61-1.5.61H24.5v-4.19h6.47c.54.04.98.26 1.35.66.37.4.56.87.56 1.42 0 .6-.2 1.09-.61 1.5Z" style="fill:#f1614b"/><path d="M16.8 3.75c-.49-.24-1.04-.34-1.59-.31.18-.06.36-.11.55-.14.22-.04.44-.05.67-.03a5.31 5.31 0 0 0-1.69-.5c-1.17-.14-2.39.12-3.42.7-.39.22-.75.48-1.08.78.43-.49.93-.92 1.5-1.25a5.97 5.97 0 0 1 3.53-.78c-.35-.7-1.07-1.21-1.86-1.3-.4-.05-.81.01-1.18.17s-.7.41-.95.72c.05-.13.12-.25.19-.37.09-.14.19-.27.31-.38-.4.17-.78.4-1.11.69-.58.51-1 1.2-1.22 1.94 0-.1-.02-.21-.03-.31-.14-.88-.54-1.72-1.17-2.35C7.94.71 7.57.45 7.17.26c.11.12.21.26.29.41.07.12.13.25.17.39-.23-.34-.55-.62-.92-.8S5.91-.02 5.5 0a2.5 2.5 0 0 0-1.98 1.2c1.25-.04 2.51.32 3.55 1.02.82.55 1.5 1.31 1.96 2.18a5.78 5.78 0 0 0-1.15-1c-1.02-.69-2.26-1.07-3.49-1.03-.62.02-1.23.15-1.8.37.23 0 .46.03.69.09.19.05.38.11.56.2-.56-.08-1.15-.02-1.68.18-.53.2-1.01.54-1.38.98-.71.84-.96 2.06-.64 3.13a8.382 8.382 0 0 1 4.38-2.63c.54-.13 1.66-.22 1.66-.22.25-.19.57-.31.92-.38-.23.12-.41.24-.47.38.68.02 1.36.12 2.02.3-.49-.06-.99-.06-1.48 0a5.27 5.27 0 0 0-2.92 1.4c-.39.38-.72.83-.97 1.32.16-.14.33-.25.51-.35.15-.08.32-.15.48-.2-.42.28-.77.67-1 1.12-.23.45-.34.96-.33 1.47.03.99.6 1.94 1.44 2.45-.02-1.54.44-3.08 1.32-4.35a7.537 7.537 0 0 1 3.45-2.71c.02 0 .05.02.07.03.14 1.09.15 2.19.03 3.28-.3 2.59-2.48 7.38-2.48 7.38s-2.32 4.55-3.63 6.75c0 0 .8.38 1.83 0s1.76 0 1.76 0 .3-1.76.51-2.62c.93-3.91 2.63-7.69 2.73-11.71.03-1.04-.06-2.08-.24-3.1 0 0 0-.02.01-.02.61.21 1.2.51 1.72.89.03-.11-.02-.27-.11-.45.18.21.31.42.38.66 0 0 .63.57.9.9.83 1.02 1.34 2.3 1.42 3.61.69-.49 1.1-1.34 1.06-2.19a2.57 2.57 0 0 0-1.31-2.12c.15.03.29.08.43.14.16.07.32.16.46.26-.24-.4-.56-.76-.92-1.06-.62-.51-1.39-.84-2.19-.95.96-.04 1.93.08 2.85.38 1.58.52 2.99 1.53 3.97 2.87.39-.99.25-2.18-.36-3.05-.31-.45-.74-.81-1.24-1.04Z" style="fill:#35bca7"/><path d="M109.38 11.83h-8.99V5.06h-2.71v16.29h2.71v-6.84h8.99v6.84h2.73V5.06h-2.73v6.77zM144.89 5.07c-4.49 0-8.14 3.64-8.14 8.14s3.64 8.14 8.14 8.14 8.14-3.64 8.14-8.14-3.64-8.14-8.14-8.14Zm0 13.71c-3.08 0-5.57-2.49-5.57-5.57s2.49-5.57 5.57-5.57 5.57 2.49 5.57 5.57-2.49 5.57-5.57 5.57ZM207.2 7.35c-1.61-1.52-3.56-2.29-5.79-2.29h-5.63v16.29h5.63c1.91 0 3.62-.58 5.11-1.71 1.48-1.14 2.48-2.6 2.95-4.36.18-.68.28-1.38.28-2.08 0-1.13-.22-2.21-.66-3.21-.44-1-1.07-1.89-1.88-2.65Zm-.25 5.86c0 .64-.12 1.27-.36 1.88-.39 1.02-1.07 1.86-2.01 2.5-.94.64-2 .96-3.17.96h-2.85V7.85h2.85c1.4 0 2.61.44 3.68 1.36.72.63 1.25 1.4 1.57 2.3.19.53.28 1.09.28 1.65v.05ZM168.85 14.28c0 1.22-.43 2.25-1.32 3.12-.89.88-1.92 1.3-3.17 1.3s-2.29-.43-3.19-1.3c-.89-.88-1.33-1.9-1.33-3.12V5.06h-2.71v9.21c0 1.95.71 3.64 2.11 5.01 1.4 1.37 3.12 2.07 5.1 2.07s3.7-.7 5.1-2.07c1.4-1.37 2.11-3.06 2.11-5.01V5.06h-2.71v9.21ZM85.53 7.75c.97 0 1.87.24 2.68.71.82.48 1.48 1.12 1.96 1.92l.14.22h2.94l-.28-.65c-.63-1.45-1.63-2.64-2.96-3.54-1.34-.9-2.85-1.35-4.49-1.35-2.22 0-4.15.8-5.72 2.39-1.58 1.59-2.38 3.52-2.38 5.75s.8 4.17 2.38 5.75c1.58 1.59 3.5 2.39 5.72 2.39 1.64 0 3.15-.45 4.49-1.35 1.33-.9 2.33-2.09 2.96-3.54l.28-.65h-2.94l-.14.22a5.63 5.63 0 0 1-1.96 1.92c-.81.47-1.71.71-2.68.71-1.51 0-2.76-.52-3.82-1.59s-1.58-2.34-1.58-3.87.52-2.79 1.58-3.87c1.06-1.07 2.31-1.59 3.82-1.59ZM188.17 16.9 177.99 5.06h-2.47V21.3h2.72V9.49l10.18 11.86h2.47V5.11h-2.72V16.9zM131.15 12.4c.53-.77.8-1.63.8-2.58 0-1.31-.48-2.44-1.43-3.36-.95-.92-2.1-1.39-3.42-1.39h-7.29v16.29h9.23c1.3-.04 2.43-.52 3.34-1.43.92-.92 1.39-2.03 1.39-3.32 0-.99-.3-1.91-.9-2.72a4.823 4.823 0 0 0-1.73-1.48Zm-8.55-4.55h4.46c.57 0 1.05.2 1.46.61.41.41.6.9.6 1.48s-.2 1.07-.6 1.48c-.41.41-.88.61-1.46.61h-4.46V7.84Zm7.77 10.1c-.41.41-.9.61-1.5.61h-6.27v-4.19h6.47c.54.04.98.26 1.35.66.37.4.56.87.56 1.42 0 .6-.2 1.09-.61 1.5ZM208.94 41.48c0-.24-.19-.42-.44-.42h-.64v1.43h.26v-.55h.27l.29.55h.3s-.32-.57-.33-.59c.16-.04.29-.2.29-.42Zm-.58.25h-.24v-.47h.28c.16 0 .28.07.28.23 0 .2-.16.24-.31.24Z" style="fill:#f1614b"/></svg>