<svg xmlns="http://www.w3.org/2000/svg" aria-labelledby="CheapCaribbean Vacations Logo" viewBox="0 0 288.07 119.35"><path d="m97.01 23.93 1.15-.24c.75-.15 1.51-.29 2.25-.43.45-.09.64-.3.7-.75.02-.16.01-.32.05-.49.25-1.21.48-2.42.78-3.63.3-1.22.7-2.44 1.39-3.57.34-.56.71-1.1 1.25-1.49.41-.29.85-.45 1.28-.24.4.2.45.61.36 1.05-.13.62-.26 1.25-.44 1.86-.34 1.17-.74 2.33-.79 3.53-.03.83.13 1.59.7 2.15.5.49 1.16.66 1.88.67 1.78.01 3.37-.66 4.77-1.98.45-.43.85-.91 1.28-1.38.01.02.04.05.06.08.53.85 1.3 1.39 2.27 1.67 1 .3 2.05.3 3.13.18 2.24-.24 4.26-1.11 5.99-2.81.44-.43.86-.9 1.3-1.35.03.08.07.15.09.23.62 1.73 2.24 2.57 4.14 2.21 1.54-.29 2.89-1.03 4.12-2.09.25-.21.48-.44.73-.67.05.08.08.16.12.22.45.83 1.14 1.36 2.13 1.45.91.08 1.81-.19 2.69-.6.78-.36 1.46-.88 2.16-1.54-.47 1.92-.93 3.75-1.36 5.58-.4 1.68-.66 3.36-.53 5.02.08 1.06.97 1.97 2 2.1 1.21.15 2.38-.14 3.54-.72.6-.3 1.15-.67 1.63-1.16.14-.15.28-.31.39-.49.31-.5.13-.83-.41-.79-.99.06-1.55-.41-1.61-1.4-.02-.34-.03-.7.03-1.04.24-1.66.49-3.32.77-4.98.13-.77.32-1.53.48-2.31.26.13.48.26.72.35 1.97.7 3.89.15 5.75-1.1 1.32-.89 2.29-2.11 3.01-3.52.89-1.73 1.34-3.51 1.11-5.33-.26-1.99-1.75-3.15-3.78-2.92-1.62.18-3.06.93-4.32 2.12-.2.19-.38.4-.58.61.03-.3.06-.59.08-.87.04-.66-.26-.99-.91-1.01-.17 0-.36 0-.53.03-.67.14-1.33.27-1.99.46-.64.18-1.27.42-1.84.84-.54.41-.62.72-.43 1.29.1.29.15.62.15.94-.05 1.81-.42 3.62-.76 5.44-.02.08-.06.17-.11.23-.22.24-.43.49-.67.7-.75.63-1.84.61-2.16-.43-.18-.6-.07-1.25-.01-1.88.15-1.5.54-2.97.95-4.45.13-.47.25-.94.34-1.41.11-.59-.17-.84-.75-.7-.06.01-.11.02-.17.05-.77.31-1.54.61-2.31.94-.47.2-.92.25-1.37.1-.29-.1-.59-.16-.9-.2-1.44-.17-2.88.15-4.3.71-2.08.83-3.63 2.27-4.61 4.32a9.266 9.266 0 0 0-.9 3.68c0 .15-.04.35-.14.44-.54.52-1.07 1.04-1.66 1.5-1.15.9-2.42 1.36-3.77 1.22-1.07-.11-1.91-.85-1.88-2.05.08-.03.17-.06.26-.09 1.22-.29 2.39-.76 3.48-1.47 1.08-.71 2.01-1.57 2.56-2.77.71-1.56.24-3.09-1.13-3.6-.34-.13-.72-.2-1.09-.22-1.82-.05-3.6.41-5.3 1.36a8.915 8.915 0 0 0-3.39 3.26c-.9 1.5-1.23 3.07-1.07 4.67.04.37-.04.61-.31.86-.11.1-.21.22-.32.32-.48.43-1.02.6-1.56.4-.54-.2-.63-.71-.61-1.27.03-.77.25-1.51.5-2.26.32-.98.64-1.96.67-2.96.04-1.11-.48-1.97-1.41-2.26-.69-.21-1.42-.2-2.17-.06-1.4.26-2.64.93-3.74 1.92-.4.35-.76.75-1.15 1.13.02-.07.03-.12.05-.18.59-2.29 1.21-4.57 1.76-6.86.28-1.17.51-2.35.44-3.52-.08-1.29-.93-2.18-2.2-2.29-1.3-.11-2.56.27-3.77.96-.6.34-1.17.74-1.57 1.32-.15.22-.27.46-.14.7.11.22.34.22.58.2.64-.05 1.1.2 1.29.77.12.34.17.73.17 1.11 0 1.92-.34 3.85-.78 5.77-.64 2.76-1.35 5.52-2.02 8.28-.32 1.32-.62 2.64-.68 3.98-.03.72.24.97.94.82Zm51.69-12.85c.18-1.04.48-2.07.96-3.07.3-.63.69-1.2 1.27-1.62.31-.22.63-.31.98-.31.44 0 .75.21.84.64.07.32.08.65.12.98-.1 1.45-.37 2.88-.91 4.28-.3.8-.69 1.56-1.41 2.12-.41.32-.86.45-1.32.4-.52-.04-.85-.34-.82-.88.05-.85.14-1.7.29-2.55Zm-17.29 2.61c.12-1.19.38-2.37.86-3.52.32-.76.71-1.51 1.44-1.99.3-.2.68-.34 1.02-.4.7-.11 1.07.25 1.08.95v.25c-.16 1.84-.4 3.68-1.19 5.47-.26.6-.63 1.14-1.19 1.53-.8.56-1.59.37-1.92-.44-.24-.58-.17-1.22-.11-1.85Zm-11.4-3.14c.32-.41.69-.76 1.18-.95.37-.15.74-.18 1.03.06.3.25.27.63.17 1.01-.15.57-.47 1.06-.85 1.53-.77.92-1.68 1.6-2.81 1.99.03-1.32.44-2.54 1.29-3.64ZM75.16 34.6c1.26.45 2.62.6 4.03.58 1.93-.03 3.84-.36 5.67-1.21 3.78-1.77 6.5-4.53 8.48-7.94.35-.6.57-1.26.78-1.91.06-.18-.07-.51-.23-.57-.2-.09-.55-.04-.79.06-.25.11-.45.36-.66.57-.43.44-.83.9-1.26 1.33-1.76 1.78-3.75 3.05-6.31 3.05-1.88 0-3.46-.51-4.58-1.81-1.06-1.22-1.4-2.74-1.39-4.37.02-3.22.52-6.43 1.67-9.63.89-2.47 2.06-4.83 3.92-6.91 1.22-1.37 2.63-2.49 4.48-2.94.49-.12 1.02-.18 1.5-.13 1.92.2 1.87 1.89 1.06 2.94-.44.58-1.04 1.08-1.45 1.67-.97 1.39-.58 3.47 1.73 3.46 1.42 0 2.46-.71 3.16-1.87 1.15-1.93 1.25-3.87.57-5.71-.75-2.04-2.48-3.02-4.8-3.21-2.6-.22-5.1.52-7.5 1.79-2.67 1.41-4.91 3.32-6.8 5.58-4.56 5.42-6.62 11.37-6.67 17.06.06 2.62.3 4.51 1.11 6.24.86 1.83 2.22 3.18 4.27 3.9Z" style="fill:#e82e8b"/><path d="M101.57 62.52c-.9 3.13-1.91 6.24-2.08 9.43-.12 2.23.51 4.06 2.24 5.28 1.29.91 2.83 1.21 4.5 1.17 6.04-.31 12.08-5.63 13.96-7.46.28.81.52 1.22.52 1.22 1.05 1.71 2.6 2.78 4.56 3.3 3.64.97 7.39.53 11.17-.87 2.81-1.04 5.25-2.76 7.33-5.04 2.28-2.5 3.86-5.35 4.8-8.48.81-2.68 1.17-5.35.7-7.97-.41-2.23-1.53-3.9-3.72-4.56-3.37-1.01-6.74-.4-10.03 1.69-.94.6-1.8 1.36-2.74 2.08.27-.97.53-1.94.81-2.92 1.13-3.94 2.3-7.87 3.38-11.82.54-1.97.99-3.96.78-5.95-.24-2.38-1.91-4.14-4.24-4.45-1.65-.22-3.3-.08-4.98.42-2.1.63-4.09 1.56-5.78 3.13-.46.43-.88.97-1.16 1.52-.42.82 0 1.38.86 1.37.36 0 .73-.03 1.07.02 1.28.21 2.13 1.31 2.22 2.85.12 2.25-.2 4.53-.61 6.8-.59 3.23-1.58 6.41-2.54 9.6-.94 3.12-1.85 6.24-2.68 9.37-.11.42-.2.9-.28 1.38-.83 3.61-2.46 5.15-2.99 5.67-.65.63-1.32 1.22-2.2 1.4-1.73.36-3.09-.69-3.06-2.53.03-1.46.15-2.96.45-4.43.41-2.01 1.05-4.02 1.55-6.03.35-1.41.66-2.82.91-4.23.21-1.2-.37-1.97-1.49-2.15-.31-.04-.65-.07-.97-.02-1.27.19-2.53.36-3.79.65-1.57.36-3.12.87-4.55 1.79-1.33.86-1.57 1.55-1.19 2.91.16.57.28 1.2.19 1.8a33.3 33.3 0 0 1-.91 4.02Zm28.33 4.29c.5-3.25 1.34-6.47 2.57-9.62.58-1.48 1.51-2.75 3.14-3.28 1.73-.56 3.11.36 3.17 2.09 0 .24 0 .49-.02.73-.41 4.07-1.34 8.06-3.33 11.89-.58 1.11-1.28 2.17-2.4 2.86-1.51.94-3.1.42-3.29-1.21-.13-1.11-.03-2.31.15-3.47ZM152.57 68.39c1.05 1.71 2.6 2.78 4.56 3.3 3.64.97 7.38.53 11.17-.87 2.81-1.04 5.25-2.76 7.33-5.03 2.28-2.51 3.86-5.35 4.8-8.48.81-2.68 1.17-5.36.7-7.97-.41-2.23-1.53-3.9-3.72-4.56-3.37-1.01-6.74-.4-10.03 1.69-.94.6-1.8 1.36-2.73 2.08.27-.97.53-1.94.81-2.92 1.13-3.94 2.3-7.87 3.38-11.82.54-1.97.98-3.96.78-5.95-.24-2.38-1.91-4.14-4.24-4.45-1.65-.22-3.3-.07-4.98.42-2.1.63-4.08 1.56-5.77 3.12-.46.43-.88.97-1.16 1.52-.42.82 0 1.38.86 1.37.36 0 .73-.03 1.07.03 1.28.21 2.13 1.31 2.22 2.86.12 2.25-.2 4.53-.61 6.8-.59 3.23-1.58 6.41-2.54 9.6-.94 3.12-1.84 6.24-2.68 9.37-.47 1.79-.62 4.43-.49 5.36.42 3.05 1.29 4.53 1.29 4.53Zm9.2-5.35c.5-3.25 1.34-6.47 2.57-9.62.58-1.49 1.51-2.75 3.14-3.28 1.73-.56 3.11.36 3.17 2.09 0 .24 0 .49-.01.73-.41 4.06-1.34 8.06-3.33 11.89-.58 1.11-1.28 2.17-2.39 2.86-1.51.94-3.1.42-3.29-1.21-.13-1.11-.03-2.31.15-3.47ZM281.86 50.63c-.08.06-.16.14-.24.2-1.76 1.41-4.1.81-4.33-1.15-.09-.74-.07-1.54.11-2.3.39-1.69.87-3.36 1.36-5.04.55-1.91 1.11-3.82 1.05-5.75-.05-1.89-.86-3.25-2.65-3.81-1.74-.55-3.59-.39-5.45.16-2.56.75-4.8 2.2-6.87 3.97-1.01.86-1.93 1.82-2.87 2.72.04-.15.1-.34.13-.54.18-1.08.41-2.17.51-3.25.07-.84-.39-1.38-1.18-1.57-.39-.09-.82-.18-1.23-.11-1.54.25-3.09.5-4.62.86-1.34.32-2.65.82-3.87 1.61-1.34.87-1.55 1.54-1.12 2.91.19.61.3 1.31.24 1.98-.32 3.65-1.36 7.26-2.23 10.88l.03-.13c-1.96 2.04-3.89 2.95-4.04 3.04-1.56.96-3.52.71-4.09-1.31-.36-1.27-.1-2.63.06-3.95.38-3.14 1.27-6.23 2.21-9.32.3-.98.57-1.97.78-2.96.26-1.24-.31-1.77-1.55-1.5-.12.03-.24.05-.35.09-1.64.62-3.28 1.22-4.91 1.87-1.01.4-1.95.47-2.89.13-.6-.22-1.24-.37-1.88-.46-3.02-.43-6.06.17-9.08 1.3-4.42 1.65-7.75 4.61-9.9 8.9-1.25 2.49-1.89 5.07-2.05 7.71-.02.31-.11.73-.32.93-1.16 1.06-2.31 2.14-3.56 3.07-2.47 1.85-5.15 2.75-8 2.39-2.24-.29-3.98-1.88-3.87-4.4.18-.05.37-.12.56-.17 2.58-.56 5.06-1.48 7.39-2.94 2.31-1.44 4.31-3.21 5.52-5.72 1.58-3.25.66-6.5-2.21-7.62-.71-.27-1.5-.46-2.28-.5-3.84-.18-7.59.71-11.23 2.62-3 1.58-5.46 3.8-7.28 6.72-1.96 3.13-2.74 6.41-2.46 9.78 0 0 .09 2.02 1.22 4.35 1.07 1.81 2.67 2.98 4.7 3.63 2.09.67 4.31.73 6.59.53 4.72-.42 9.02-2.15 12.74-5.65.96-.9 1.85-1.85 2.8-2.79.07.17.13.32.18.48 1.22 3.68 4.59 5.52 8.62 4.84 3.26-.55 6.13-2.04 8.77-4.21.53-.43 1.03-.91 1.56-1.38l.24.48c.91 1.78 2.34 2.92 4.42 3.14 1.92.2 3.83-.31 5.7-1.13 1.65-.73 5.2-3.49 6.7-4.86l-.19.78c-.05.33-.09.52-.11.71-.06.61-.17 1.22-.16 1.82.02.99.54 1.4 1.54 1.32.24-.02.49-.05.74-.09 2.3-.4 4.6-.81 6.9-1.23.99-.18 1.39-.67 1.47-1.68.05-.59.05-1.19.18-1.78.53-2.24 1.03-4.49 1.69-6.72.79-2.67 1.77-5.3 3.37-7.72.76-1.15 1.61-2.21 2.8-2.95 1.49-.94 2.82-.53 3.12.97.05.26.04.55.03.83-.06 1.37-.53 2.69-1.01 4.01-.87 2.37-1.68 4.75-1.87 7.22-.19 2.49.64 4.34 2.68 5.46 2.07 1.13 4.42.99 6.81.34 2.52-.67 4.75-2.03 6.68-3.94.67-.66 1.27-1.39 1.93-2.1 0 0 5.44-7.22-2.15-2.02Zm-83.77-4.01c.69-.85 1.49-1.57 2.52-1.94.8-.29 1.57-.35 2.16.17.61.54.54 1.34.31 2.13-.35 1.18-1.04 2.22-1.87 3.17-1.65 1.91-3.61 3.3-6.02 4.07.13-2.79 1.04-5.32 2.89-7.59Zm33.34-2.57c-.41 3.88-1 7.74-2.75 11.47-.58 1.25-1.39 2.36-2.58 3.16-1.71 1.14-3.37.71-4.02-1-.47-1.24-.3-2.58-.14-3.91.29-2.51.9-4.98 1.98-7.38.71-1.59 1.57-3.14 3.13-4.13.65-.41 1.44-.69 2.16-.79 1.47-.19 2.23.59 2.23 2.05 0 .18 0 .36-.01.53Z" style="fill:#e82e8b"/><path d="M131.73 88.58c-.58-.28-1.16-.54-1.75-.78-14.16-5.86-30.28-4.28-45.24-.95s-29.7 8.32-45.01 9.03c-6.25.29-13.68-.84-16.53-6.42-1.45-2.84-1.32-6.21-.97-9.38 1.76-16.28 8.23-32.02 18.43-44.83 1.98-2.49 4.25-4.97 7.29-5.9 3.04-.93 6.96.34 7.86 3.39 1.66 5.6-7.31 9.47-7.09 15.31.16 4.27 5.73 6.69 9.67 5.04s6.18-5.89 7.14-10.05c1.16-5.03.86-10.56-1.78-15-1.76-2.97-4.66-5.32-7.98-6.31s-6.57-.7-9.74-.02c-6.71 1.44-13.07 4.28-18.77 8.09-5.76 3.85-10.86 8.69-15.11 14.16-2.49 3.2-4.7 6.63-6.58 10.23C2.02 61.01-.51 68.63.09 76.3c.73 9.37 6.41 18.21 14.62 22.78 7.14 3.97 15.63 4.69 23.8 4.44 19.52-.61 38.59-6.28 58.09-7.17 3.86-.18 7.83-.15 11.43 1.24 3.6 1.38 6.81 4.38 7.44 8.19.74 4.49-2.27 8.9-6.11 11.33 7.46 2.47 15.88 3.44 23 .12s12.08-11.99 9.21-19.3c-1.69-4.32-5.61-7.3-9.84-9.33ZM111.35 46.6c2.56-1.28 4.61-4.42 4.69-7.62.02-.5-.21-1.4-.77-2.14-1.13-1.51-3.51-1.61-5.11-.95-2.51 1.03-4.71 3.92-5.05 6.56-.51 3.89 3.17 5.71 6.25 4.16Z" style="fill:#e82e8b"/><path d="M61.59 58.76c-.6-.22-1.24-.37-1.88-.46-3.03-.43-6.06.17-9.08 1.3-4.42 1.65-7.74 4.61-9.9 8.9-3.55 7.03-1.58 12.41-1.58 12.41 1.22 3.68 4.59 5.52 8.63 4.84 3.25-.55 6.12-2.04 8.77-4.21.53-.43 1.03-.91 1.56-1.38.09.18.16.34.24.48.91 1.78 2.34 2.92 4.41 3.14 1.92.2 3.84-.31 5.7-1.14 1.33-.58 3.87-2.48 5.6-3.91-.1.54-.19 1.08-.26 1.62-.19 1.47.43 1.97 1.89 1.73 2.43-.4 4.86-.83 7.29-1.28.97-.18 1.37-.67 1.45-1.65.05-.61.08-1.22.17-1.83.46-3.01 1.28-5.97 2.32-8.9.73-2.06 1.65-4.04 3.03-5.82.31-.41.7-.76 1.13-1.23.05.3.08.45.11.61.17.95.68 1.62 1.55 1.99 1.6.67 3.75.07 5.19-1.5 1.74-1.9 2.43-4.07 2.22-6.39-.15-1.7-1.44-2.69-3.17-2.64-2.05.06-3.86.89-5.39 2.43-.96.97-1.77 2.11-2.46 2.95.09-.78.26-1.84.32-2.88.05-.81-.39-1.36-1.15-1.55-.42-.11-.89-.19-1.33-.11-1.51.24-3.02.48-4.52.84-1.37.33-2.72.84-3.96 1.66-1.29.85-1.51 1.53-1.08 2.84.18.54.34 1.15.27 1.73-.18 1.58-.47 3.16-.73 4.74-.02.14-.09.3-.19.4l-1.68 7.38c-1.44 1.2-2.63 1.77-2.74 1.84-1.56.96-3.52.71-4.09-1.31-.35-1.27-.09-2.63.06-3.95.38-3.14 1.27-6.23 2.21-9.32.3-.98.57-1.97.78-2.96.26-1.24-.31-1.77-1.55-1.5-.12.02-.24.05-.35.09-1.64.62-3.28 1.22-4.91 1.87-1.01.4-1.95.48-2.89.14Zm-2.38 5.69c-.41 3.88-1 7.74-2.75 11.47-.58 1.24-1.38 2.36-2.57 3.16-1.71 1.14-3.37.71-4.02-1.01-.47-1.24-.3-2.58-.14-3.91.29-2.5.9-4.97 1.98-7.37.71-1.59 1.57-3.14 3.13-4.12.65-.41 1.44-.7 2.16-.79 1.47-.19 2.23.58 2.23 2.05v.54ZM171.94 74.81c-2.44.33-4.5 2.84-4.5 3.87 0 .34.26.57.69.51 1.2-.16 2.1.62 2.1 2.54 0 2.19-.56 4.96-1.41 7.48-2.06 6.07-5.49 10.52-7.29 10.76-.98.13-1.59-.34-1.59-1.37 0-4.89 3.35-11.56 3.35-16.92 0-3.65-2.14-5.41-6.73-4.79-6.61.89-13.98 6.65-13.98 13.94 0 3 1.93 4.63 4.5 4.28 3.13-.42 5.44-3.83 5.44-5.11 0-.3-.13-.45-.43-.41-.3.04-.81.45-1.37.53-.9.12-1.71-.41-1.71-1.82 0-3.47 3.26-8.42 6.56-8.87 1.16-.16 1.89.47 1.89 1.89 0 7.59-4.33 13.75-4.33 19.8 0 3.04 1.84 4.86 4.89 4.44 4.5-.61 11.28-8.43 15.31-17.56 1.5-3.33 2.49-6.3 2.49-9.38 0-2.7-1.5-4.13-3.86-3.81ZM237.9 74.18c1.58-.21 3.08-2.21 3.08-3.87 0-1.25-.83-2.09-2.33-1.89-1.58.21-3.08 2.17-3.08 3.83 0 1.25 1.04 2.11 2.33 1.93Z" style="fill:#e82e8b"/><path d="M250.86 74.47c-5.71.77-8.91 5.24-8.91 9.29 0 .32.04.61.08.91-.04.04-.08.09-.13.14-.54.61-.87.99-1.58 1.09-.75.1-1.37-.44-1.37-1.52 0-2.75 1.33-5.55 1.33-7.22 0-.71-.5-1.02-1.41-.89-2.42.33-4.62 1.25-4.62 2.17 0 .54.25.59.25 1.3 0 1.24-.93 3.43-1.25 5.65-.05.05-.11.1-.17.16-.67.63-1.5 1.54-2.33 1.65-1 .14-1.62-.24-1.62-1.49 0-1.37.54-3.57.87-4.82.29-1.04.75-1.43 1.79-1.57.5-.07.96-.71.96-1.54 0-.34-.25-.42-.58-.38-1.25.17-1.41-.1-1.41-.64 0-.71.58-2.49.58-3.41 0-.34-.21-.64-.67-.58-.37.05-.71.35-1.12 1.07-1.09 1.9-3.12 4.34-5.33 4.64-.46.06-.71.89-.71 1.3 0 .75 1.12.27 1.12.8 0 2-1.18 4.16-1.27 6.69-.02.03-.04.05-.07.07-.54.61-.87.99-1.58 1.09-.75.1-1.42-.44-1.42-1.52 0-3.25 1.46-6.69 1.46-7.69 0-.46-.25-.59-.62-.54-.96.13-2.75 1.17-3.46 1.26-.67.09-1.29-.62-3.5-.32-5.92.8-8.42 5.3-8.45 9.41-.06.06-.12.11-.18.17-1 1.01-2.54 2.47-4.37 2.71-1.75.24-3.33-.67-3.33-3.13 0-2.96 1.79-5.41 3-5.57.5-.07.75.11.75.44-.04.5-.66.96-.66 1.88 0 .83.71 1.28 1.66 1.15 1.37-.19 2.46-1.29 2.46-3 0-1.58-1.17-2.75-4.33-2.33-5.37.73-8.7 4.72-8.7 9.05 0 .36.04.69.09 1.01-.05.05-.09.1-.15.16-.54.61-.87.99-1.58 1.09-.75.1-1.42-.44-1.42-1.52 0-3.25 1.46-6.69 1.46-7.69 0-.46-.25-.59-.62-.54-.96.13-2.75 1.17-3.46 1.26-.66.09-1.29-.62-3.5-.32-5.95.81-8.45 5.35-8.45 9.47 0 3.21 2 4.6 4.46 4.27 3.04-.41 5.25-2.92 5.25-2.92s.71 2.11 3.21 1.77c2.62-.35 4.41-2.22 5.29-3.46l.06-.09c1.03 1.75 3.25 2.51 6.03 2.13 3.78-.51 5.85-2.77 7.26-4.37.56 2.07 2.24 2.96 4.24 2.69 3.04-.41 5.25-2.92 5.25-2.92s.71 2.11 3.21 1.77c2.36-.32 4.03-1.85 4.99-3.06.52 1.33 1.8 2.14 4.02 1.84 2.06-.28 4.22-2.08 5.56-3.6.27 1.58 1.62 2.62 4.07 2.29 2.62-.35 4.41-2.22 5.29-3.46.91 1.7 2.84 2.54 5.46 2.18 5.12-.69 8.08-5.09 8.08-9.76 0-2.87-2.12-4.58-5.2-4.17Zm-67.5 17.8c-.54 1.32-1.38 2.14-2.17 2.25-.92.12-1.42-.68-1.42-1.76 0-2.29 1.04-6.8 3.41-7.12.87-.12 1.25.29 1.25 1.04 0 1.62-.58 4.45-1.08 5.6Zm31.33-4.24c-.54 1.32-1.38 2.14-2.17 2.25-.92.12-1.42-.68-1.42-1.76 0-2.29 1.04-6.8 3.41-7.12.87-.12 1.25.29 1.25 1.04 0 1.62-.58 4.45-1.08 5.6Zm35.54-2.98c-1.62.22-2.71-.84-2.71-2.72 0-2.37 1-4.05 2.04-5.02.58-.54 1-.72 1.17-.74.25-.03.38.07.38.28 0 .25-.63.67-.63 1.71 0 .75.38 1.16 1.67 1.48.58.17.83.76.83 1.47 0 1.45-1.08 3.31-2.75 3.54ZM280.61 73.53c0-.79.66-1.46 1.21-1.54.46-.06.79.06.79.48 0 .37-.33.67-.33 1.29 0 .79.71 1.32 1.5 1.21 1.38-.19 1.96-1.27 1.96-2.39 0-1.71-1.38-2.69-4.41-2.27-3.12.42-5.75 2.11-5.75 4.73 0 3.12 4.12 2.94 4.12 5.4 0 .75-.33 1.17-.92 1.25-.75.1-1.13-.55-1.13-1.59s-.67-1.45-1.79-1.3c-.86.12-1.71.87-1.88 1.99-.37.4-.7.65-1.25.72-.75.1-1.33-.24-1.33-1.32 0-1.71 1.17-3.95 1.17-5.86 0-1.58-.92-2.5-3.21-2.19-2.45.33-4.91 2.71-5.66 3.72 0 0 .33-1.25.33-1.92 0-.71-.5-1.02-1.41-.89-2.42.33-4.67 1.26-4.67 2.17 0 .54.29.58.29 1.29 0 2.25-1.75 8.11-1.75 9.65 0 .71.34.87.87.8.63-.08 2.25-.51 3.5-.68.62-.08.92-.29.92-1 0-1.62 1.08-5.31 1.79-6.82.92-1.96 1.92-2.8 2.62-2.9.58-.08.96.37.96 1.04 0 1.62-1.33 3.47-1.33 6.01 0 1.79 1.46 3.01 3.83 2.69 2.13-.29 3.7-1.57 4.69-2.7.77 1.26 2.66 1.79 5.03 1.47 3.66-.5 5.83-2.62 5.83-5.33 0-3.04-4.58-2.75-4.58-5.21ZM283.73 41.32c0-.3.06-.58.17-.85.11-.26.27-.49.46-.69.2-.2.43-.35.69-.47s.55-.17.85-.17.58.06.85.17a2.168 2.168 0 0 1 1.15 1.16 2.223 2.223 0 0 1 0 1.7c-.11.26-.27.49-.46.69s-.43.35-.69.47a2.223 2.223 0 0 1-1.7 0c-.26-.12-.49-.27-.69-.47-.2-.2-.35-.43-.46-.69a2.15 2.15 0 0 1-.17-.85Zm3.91 0a1.81 1.81 0 0 0-.51-1.25 1.723 1.723 0 0 0-1.91-.38c-.21.09-.4.22-.55.38s-.28.35-.37.56c-.09.22-.14.45-.14.69s.05.47.14.69.22.4.37.56.34.29.55.38a1.723 1.723 0 0 0 1.36 0c.21-.09.4-.22.55-.38s.28-.35.37-.56.14-.45.14-.69Zm-2.56 1.27v-2.53h.96c.58 0 .87.24.87.71 0 .12-.02.22-.05.31s-.08.15-.14.21c-.06.06-.13.1-.21.13-.08.03-.16.05-.25.06l.73 1.11h-.48l-.73-1.1h-.31v1.1h-.4Zm.4-2.17v.71h.45c.2 0 .34-.03.44-.09.1-.06.15-.15.15-.29 0-.12-.04-.2-.13-.25a.671.671 0 0 0-.33-.08h-.58Z" style="fill:#e82e8b"/></svg>